<mxfile host="65bd71144e">
    <diagram id="SXE4oPFCwGH3_8-uOmkZ" name="Page-1">
        <mxGraphModel dx="670" dy="464" grid="0" gridSize="10" guides="1" tooltips="1" connect="1" arrows="1" fold="1" page="1" pageScale="1" pageWidth="850" pageHeight="1100" math="0" shadow="0">
            <root>
                <mxCell id="0"/>
                <mxCell id="1" parent="0"/>
                <mxCell id="6" value="" style="whiteSpace=wrap;html=1;fillColor=#fff2cc;strokeColor=#d6b656;" parent="1" vertex="1">
                    <mxGeometry x="28" y="180" width="630" height="294" as="geometry"/>
                </mxCell>
                <mxCell id="8" style="edgeStyle=none;html=1;labelBackgroundColor=none;fontFamily=Fira Sans Light;fontSource=https%3A%2F%2Ffonts.googleapis.com%2Fcss%3Ffamily%3DFira%2BSans%2BLight;fontSize=14;fontColor=default;strokeColor=#000000;strokeWidth=3;" parent="1" source="2" target="4" edge="1">
                    <mxGeometry relative="1" as="geometry"/>
                </mxCell>
                <mxCell id="2" value="GitHub Actions" style="shape=image;verticalLabelPosition=bottom;labelBackgroundColor=none;verticalAlign=top;aspect=fixed;imageAspect=0;image=data:image/svg+xml,PHN2ZyB4bWxucz0iaHR0cDovL3d3dy53My5vcmcvMjAwMC9zdmciIHdpZHRoPSI0OCIgaGVpZ2h0PSI0OCIgdmlld0JveD0iMCAwIDQ4IDQ4IiBmaWxsPSJub25lIj4KPHBhdGggZmlsbC1ydWxlPSJldmVub2RkIiBjbGlwLXJ1bGU9ImV2ZW5vZGQiIGQ9Ik0xMCAxQzE0Ljk3MDcgMSAxOSA1LjAyOTMyIDE5IDEwQzE5IDE0Ljk3MDcgMTQuOTcwNyAxOSAxMCAxOUM1LjAyOTMyIDE5IDEgMTQuOTcwNyAxIDEwQzEgNS4wMjkzMiA1LjAyOTMyIDEgMTAgMVoiIHN0cm9rZT0idmFyKC0tY29sb3ItbWFya2V0aW5nLWljb24tcHJpbWFyeSwgIzIwODhGRikiIHN0cm9rZS13aWR0aD0iMiIgc3Ryb2tlLWxpbmVjYXA9InJvdW5kIiBzdHJva2UtbGluZWpvaW49InJvdW5kIi8+CjxwYXRoIGZpbGwtcnVsZT0iZXZlbm9kZCIgY2xpcC1ydWxlPSJldmVub2RkIiBkPSJNMjMgMTlDMjYuMzEzNyAxOSAyOSAyMS42ODYzIDI5IDI1QzI5IDI4LjMxMzcgMjYuMzEzNyAzMSAyMyAzMUMxOS42ODYzIDMxIDE3IDI4LjMxMzcgMTcgMjVDMTcgMjEuNjg2MyAxOS42ODYzIDE5IDIzIDE5WiIgc3Ryb2tlPSJ2YXIoLS1jb2xvci1tYXJrZXRpbmctaWNvbi1wcmltYXJ5LCAjMjA4OEZGKSIgc3Ryb2tlLXdpZHRoPSIyIiBzdHJva2UtbGluZWNhcD0icm91bmQiIHN0cm9rZS1saW5lam9pbj0icm91bmQiLz4KPHBhdGggZmlsbC1ydWxlPSJldmVub2RkIiBjbGlwLXJ1bGU9ImV2ZW5vZGQiIGQ9Ik0yMyAzNUMyNi4zMTM3IDM1IDI5IDM3LjY4NjMgMjkgNDFDMjkgNDQuMzEzNyAyNi4zMTM3IDQ3IDIzIDQ3QzE5LjY4NjMgNDcgMTcgNDQuMzEzNyAxNyA0MUMxNyAzNy42ODYzIDE5LjY4NjMgMzUgMjMgMzVaIiBzdHJva2U9InZhcigtLWNvbG9yLW1hcmtldGluZy1pY29uLXByaW1hcnksICMyMDg4RkYpIiBzdHJva2Utd2lkdGg9IjIiIHN0cm9rZS1saW5lY2FwPSJyb3VuZCIgc3Ryb2tlLWxpbmVqb2luPSJyb3VuZCIvPgo8cGF0aCBmaWxsLXJ1bGU9ImV2ZW5vZGQiIGNsaXAtcnVsZT0iZXZlbm9kZCIgZD0iTTQxIDM1QzQ0LjMxMzcgMzUgNDcgMzcuNjg2MyA0NyA0MUM0NyA0NC4zMTM3IDQ0LjMxMzcgNDcgNDEgNDdDMzcuNjg2MyA0NyAzNSA0NC4zMTM3IDM1IDQxQzM1IDM3LjY4NjMgMzcuNjg2MyAzNSA0MSAzNVoiIHN0cm9rZT0idmFyKC0tY29sb3ItbWFya2V0aW5nLWljb24tc2Vjb25kYXJ5LCAjNzlCOEZGKSIgc3Ryb2tlLXdpZHRoPSIyIiBzdHJva2UtbGluZWNhcD0icm91bmQiIHN0cm9rZS1saW5lam9pbj0icm91bmQiLz4KPHBhdGggZD0iTTI1LjAzNjUgMjMuNjA2OUwyMS45NjczIDI2LjY3MkwyMC40NzY2IDI1LjE4NjYiIHN0cm9rZT0idmFyKC0tY29sb3ItbWFya2V0aW5nLWljb24tcHJpbWFyeSwgIzIwODhGRikiIHN0cm9rZS13aWR0aD0iMiIgc3Ryb2tlLWxpbmVjYXA9InJvdW5kIiBzdHJva2UtbGluZWpvaW49InJvdW5kIi8+CjxwYXRoIGZpbGwtcnVsZT0iZXZlbm9kZCIgY2xpcC1ydWxlPSJldmVub2RkIiBkPSJNNDEgMTlDNDQuMzEzNyAxOSA0NyAyMS42ODYzIDQ3IDI1QzQ3IDI4LjMxMzcgNDQuMzEzNyAzMSA0MSAzMUMzNy42ODYzIDMxIDM1IDI4LjMxMzcgMzUgMjVDMzUgMjEuNjg2MyAzNy42ODYzIDE5IDQxIDE5WiIgc3Ryb2tlPSJ2YXIoLS1jb2xvci1tYXJrZXRpbmctaWNvbi1wcmltYXJ5LCAjMjA4OEZGKSIgc3Ryb2tlLXdpZHRoPSIyIiBzdHJva2UtbGluZWNhcD0icm91bmQiIHN0cm9rZS1saW5lam9pbj0icm91bmQiLz4KPHBhdGggZD0iTTQzLjAzNjUgMjMuNjA2OUwzOS45NjczIDI2LjY3MkwzOC40NzY2IDI1LjE4NjYiIHN0cm9rZT0idmFyKC0tY29sb3ItbWFya2V0aW5nLWljb24tcHJpbWFyeSwgIzIwODhGRikiIHN0cm9rZS13aWR0aD0iMiIgc3Ryb2tlLWxpbmVjYXA9InJvdW5kIiBzdHJva2UtbGluZWpvaW49InJvdW5kIi8+CjxwYXRoIGQ9Ik03IDYuODEyMDFDNyA2LjAyNDk4IDcuODY3MDkgNS41NDY0MSA4LjUzMyA1Ljk2NTlMMTMuNjQ2MiA5LjE4NjkyQzE0LjI3MTUgOS41ODA4MiAxNC4yNjgyIDEwLjQ5MzUgMTMuNjQwMiAxMC44ODI5TDguNTI2OTcgMTQuMDUzNEM3Ljg2MDggMTQuNDY2NCA3IDEzLjk4NzMgNyAxMy4yMDM1VjYuODEyMDFaIiBzdHJva2U9InZhcigtLWNvbG9yLW1hcmtldGluZy1pY29uLXByaW1hcnksICMyMDg4RkYpIiBzdHJva2Utd2lkdGg9IjIiIHN0cm9rZS1saW5lY2FwPSJyb3VuZCIgc3Ryb2tlLWxpbmVqb2luPSJyb3VuZCIvPgo8cGF0aCBkPSJNOSAxOVYzNEM5IDM3Ljg2NiAxMi4xNzcyIDQxIDE2IDQxSDE3IiBzdHJva2U9InZhcigtLWNvbG9yLW1hcmtldGluZy1pY29uLXByaW1hcnksICMyMDg4RkYpIiBzdHJva2Utd2lkdGg9IjIiIHN0cm9rZS1saW5lY2FwPSJyb3VuZCIgc3Ryb2tlLWxpbmVqb2luPSJyb3VuZCIvPgo8cGF0aCBkPSJNMTYuOTQ5IDI2QzE3LjUwMTMgMjYgMTcuOTQ5IDI1LjU1MjMgMTcuOTQ5IDI1QzE3Ljk0OSAyNC40NDc3IDE3LjUwMTMgMjQgMTYuOTQ5IDI0VjI2Wk04IDE5LjAzNTJDOCAyMi44ODE3IDExLjExODMgMjYgMTQuOTY0OCAyNlYyNEMxMi4yMjI4IDI0IDEwIDIxLjc3NzIgMTAgMTkuMDM1Mkg4Wk0xNC45NjQ4IDI2SDE2Ljk0OVYyNEgxNC45NjQ4VjI2WiIgZmlsbD0idmFyKC0tY29sb3ItbWFya2V0aW5nLWljb24tcHJpbWFyeSwgIzIwODhGRikiLz4KPHBhdGggZD0iTTI5LjA1NDcgMjVIMzQuOTk5MyIgc3Ryb2tlPSJ2YXIoLS1jb2xvci1tYXJrZXRpbmctaWNvbi1wcmltYXJ5LCAjMjA4OEZGKSIgc3Ryb2tlLXdpZHRoPSIyIiBzdHJva2UtbGluZWNhcD0icm91bmQiIHN0cm9rZS1saW5lam9pbj0icm91bmQiLz4KPHBhdGggZmlsbC1ydWxlPSJldmVub2RkIiBjbGlwLXJ1bGU9ImV2ZW5vZGQiIGQ9Ik0yMSA0MEMyMS41NTE4IDQwIDIyIDQwLjQ0ODIgMjIgNDFDMjIgNDEuNTUyNiAyMS41NTE4IDQyIDIxIDQyQzIwLjQ0ODIgNDIgMjAgNDEuNTUyNiAyMCA0MUMyMCA0MC40NDgyIDIwLjQ0ODIgNDAgMjEgNDBaIiBmaWxsPSJ2YXIoLS1jb2xvci1tYXJrZXRpbmctaWNvbi1zZWNvbmRhcnksICM3OUI4RkYpIi8+CjxwYXRoIGZpbGwtcnVsZT0iZXZlbm9kZCIgY2xpcC1ydWxlPSJldmVub2RkIiBkPSJNMjUgNDBDMjUuNTUxOCA0MCAyNiA0MC40NDgyIDI2IDQxQzI2IDQxLjU1MjYgMjUuNTUxOCA0MiAyNSA0MkMyNC40NDgyIDQyIDI0IDQxLjU1MjYgMjQgNDFDMjQgNDAuNDQ4MiAyNC40NDgyIDQwIDI1IDQwWiIgZmlsbD0idmFyKC0tY29sb3ItbWFya2V0aW5nLWljb24tc2Vjb25kYXJ5LCAjNzlCOEZGKSIvPgo8cGF0aCBkPSJNMzQuMDA0OCA0MS4wMDY5TDMyLjk5MjIgNDEuMDM5OSIgc3Ryb2tlPSJ2YXIoLS1jb2xvci1tYXJrZXRpbmctaWNvbi1zZWNvbmRhcnksICM3OUI4RkYpIiBzdHJva2Utd2lkdGg9IjIiIHN0cm9rZS1saW5lY2FwPSJyb3VuZCIvPgo8L3N2Zz4=;fontColor=#000000;imageBackground=none;fontFamily=Fira Sans Light;fontSource=https%3A%2F%2Ffonts.googleapis.com%2Fcss%3Ffamily%3DFira%2BSans%2BLight;fontStyle=1" parent="1" vertex="1">
                    <mxGeometry x="70" y="255" width="80" height="80" as="geometry"/>
                </mxCell>
                <mxCell id="3" value="Azure Container Apps" style="shape=image;verticalLabelPosition=bottom;labelBackgroundColor=none;verticalAlign=top;aspect=fixed;imageAspect=0;image=data:image/png,iVBORw0KGgoAAAANSUhEUgAAAHMAAABzCAYAAACrQz3mAAAAGXRFWHRTb2Z0d2FyZQBBZG9iZSBJbWFnZVJlYWR5ccllPAAACvhJREFUeNrsXV9sI0cZn3WcS3UtqvvAM4448QLinCuIowLiUAEVD1wieOoDFz/wwEtzh0SvrUDNSajSIcrFAhWhAnYK9AkU5xVQz5Wqa0Lvkg3wANJdY6kvtKXtXpMWklx2mFl/E4/Xu97Z9e7s2vl+0WT9Z3a9M7/9/s7OLCEIBAKBQCAQCAQCgUAgEAgEAoFAIBAIBAKBQCAQiGMIY1Qacual22W2KbFSYGUaPi7AZzJMVix4/TIrLf7Zxpc/bob8vXm2OQe/IR97Oeyxjj2ZrDM5SbNAXDmmwzZZWeVbP0LgoqmxUgw4zhw7hoVk+hPIO3ABSCwm/HNcYqusNBgpLUkaayH2nxH7Ipnd0iBI1A2LEfIAaILNkPty9T2l60TzQ0Di04pq1AL1tiXZRcutLuGYBCS7CGq65LJ9MqqwvRqhCSUuzewc6sdWMlkHFKDz5gOqNsCJaQyqzkDyONHnXU7TJBC9GfHQLXZuk8eSTNaps2CXCqq2LCHbzC+k85wI9n4RNERUTOqwnfkhkkbeGZd1qCzo+EUocaAI5z/6ZIIkrHjEhMIWXtRld4YZ+QwQyQm85qNWl0AarSHv59bIk9mHSAuC7mZGyBgko9PSFWvmMkikCQ5DVojkNrQxgHQtj7Sa7UNknXVcJaOq8iLY9VAJBzAVWmCkQGQRYrZEiXzxqd2SSAxsNf/duHL9VCuGc68pxL4ykTM6k+6GZiILIJGlOIlkxJXhmB+DbVn+/rb5Dtmx/mfa9HCZEtp49tVPtgZog0rM2QKbr3X0RDeZPI68EJVIRlpBIus0SF4paD8gkzAyCSU2ofSwYRN7lb1uVNcetCJqF6+EP7fzfAisDhcul+TVkUvnQWZnxdVw0y/0+P2TO0CUwcni+dOiEXGk5NbWO2S3m0z2v72lpE3sz9c/X4+xrfMgvUVQt1M6PFpDE5H8Kt0GO9ljS353aafsNNxwpK1HTQ6K17feJbt3fMkUry0uqWy7+ovXZhoDtLUMpkQGHx+dGRUyZfW6xBp28beP71wF0kpJ//7235XIlL+zuCpm76vP33jEjNBeL7taSVrdGhqILIJUCnC1uvjC99+nsQXLY0a7sKh5bNwgB3uU3N23O97IP94LS+bRe5sctoDY5drNWTNEuzddF6oF8XNi2SwdSQNPz4/SaMVgZzx+T46cOJkj93xkjJws5J0tf59nnxuMVMPo3W8AFEGrbJ4/88fNb5/5g6rdvuh6X/Bw/oaHTGkoSQwcX4YtoTb1LYYjbYy0CYNMcJKYtInvTjDC+Of8My6JXoxT2n28qGk40h4v5ec8xy6jyeWNb069sPGtlhwSPfed/5R8ska8nW61ugD+w9BmgDzH8mRpGcsbjCAuVW016cbhXXpUn0Lph15pDCTUhOLcpcBk2/zlja9a7pDoK1/bnZdiWYfE/HiOXHroliB++cr1U7IqvgzhS0GSzlkPkrNvM11xoeiE1UefuW/xNwvWUQ9PnGyrST/sf2iTvQ8Pndcn7897Eu5Xn+ONf1rkg5092WZazBpWuS2srn/GdJ1zUSJrmnRuL/HErrXP4th33RLN87F1kXWCsOwcEGkldedBPkbiVDthtS09VJIk2vW+V9I637dfB0lm9/F6qxuVpbWpBk/5vfiwI22npXMfVA0WwU94mkmscx8t+QHl6UQuuRUgNvNqdjtMZWq7VC4NUJu2Wl13fS/8dO3TnEjujFwlyUJcIFcZsU1B7MYQ20xf6emSJEVJc4gi4STTZ4eC5iaXodQYsQ3QUFxiYwtVUhvP5JJzVKjk2XgUIWmOtNHgItd3CskcxE1r24xYTm55dCTTDrCZdkibaStJZhZQgNBtPg5nNEUyo9anSu0OGZqMBNIj06bdKpcGqWTqE0P2r3+ckAnJpAFejaxa1bxZ6jo+kqlPMikJiDOl+gExaU99lEzNNjM4C9AtmQoHp8ePy/TItHsksz/xdhibSbuPT1DNak4aKKbz1NRsUDoPyUzQAQquG0bNxjCGiWQO5gCpOTSqarbLAaIYZ2p0gAJ0oUyg0oAmSmaKkqlgM22qVNddH21mhm2m6rF7JB/J1CmZRFEyidrgNCYNUpJMu7/0yLlbqjCg6c71YjovszaThLaZKJm6vVlV71Qp0MQhMM1khowzacg4k2I6T6OadREb6ABJgqnkAA0Vl7HM48ylKZmdwju8zx+V7CqlJPCPdh8/w6izMnPl+qmpIZdMl7vZ//a8LgdI5ZZ2mt1RkxZx3SQ9ckmDYJupnkBQTDLoXluoSdrTF+pJ/UCcapZPJhUTgywVyTwqAVO/5IlAnXsp1eo7xfXb3zv7t/Kjz9zHVwGZI+3VQJoJ9a9YbWSSkTjz5x8ZDT6rWlpZM5sOEOucptwpsNqHmKpwNNFGIKSWJTZVq+uu761m6cqFs5uV9Zf+1ayuPdhwnTPv6NOwLQ7g0DiLNfKbnPlsuDPEWalETCJ6YKi8WUaumFlVlzqr7GUzP3jvwCHgxETOmXs5Np7rVZuDDIH1ssk7dIVXfOxz66ZNbJPSw61X/rLRfO6vX1qSzrdAOrO7g9alFQ5NVZ4Jxoi8Rrqn9deTmnCbqM2EhRoWQGK3fkLebIrpfTIhB/s2ufPWXuekxg1G6phD7sS9eXJ3zw43BGbTMEmJLq3x3c9e4/Olm4zcl6/96RWTste/uvH1hp/GyeWMAkhh3T3VANrvVqnVpPpbxzT4bZe6cqbB//Dh7Ug+5v0fnXCmAE7cO+Zb5/2398mdtzsXx8HeIbHtw6jT4El7Gjyt1G6eswZse6ILVejwZrlTVPNIGlgkwuQd681uCc6fyDnk8i2f+MpJbjs+8cSBBjGWf33zG80IF/Gih829PNQZIFjgaEFSZdOQNJginUdZlKI4Gwf71FHR/929G2BEI8SBhrH0/GuPWBG1EW+Pey2HetKLO+paOobbDXltnAao2yNH4anp1zvOBo31WSXEPrQdFRugZp0VRZgD1BiwrV5LymlZ2EnnCl1eS6059tNvnye/eFsOFXrCG2UyHYfIk0yLkVln31Z/tn62FVM7vRZL5CtZJ766pU4yxRMI3Op0DtZzDcQTX7jdWSOBKoUKEKrYbWemQyYPR6pLa1P1mNvoNRtby+pcWsmUbMmmR5Yk8lKelx661Tc5IYwmI9GyYdWtZ1/9lJlA2+Y9HL3EF3JKjcw+jY712R8wE1moZya5dJXRWf/x9U9YGttEwE6O5nqzPnalCarWkp58J3u3/PvVJDMnCRFZ0f3EByPFTnAeRMMaPAfqtxbg4GTukRh9FhLW4vBkhkzJKSoS/0dhkCxc8T7nLRLnxCOeTGWd+VwGLvCVkJmgWlJDSCFi5k0fIitpPjAg7YfUXCDRhpm4VEymII39Hm+VusZIW81uk+hjhlo8RSCRX3QLPhpE+1MSMieZ4PQUBzgEV3NmgudXBClc6GMGGiCRmfCy01SzBZIxgBTKK1D286wrqpmr42Iz4yBAPJGBPxTVDDMyAeSJ/K9qcj+zD5tLk8y4OkOo61kgSBzblH5nC15PS/uF9YjrQGIrqxf2UDtAQNR2whccJ7GaZRKzomaXSbTH//JcrgmjFEkQ6CwhmjWbmHXJ9BsWC8KMsI0QxAubF2Ul5xbprM/eyEKIMZRkSiFKrOk8KUMkHBwZwkGyhpm4TJIpEaqSaK8Mm+o7dmRKpHKP9LzkoQqvNLNDYAgEAoFAIBAIBAKBQCAQCAQCgUAgEAgEAoFAIBDDif8LMABBqb3VrcKSuAAAAABJRU5ErkJggg==;fontColor=#000000;" parent="1" vertex="1">
                    <mxGeometry x="500" y="255" width="80" height="80" as="geometry"/>
                </mxCell>
                <mxCell id="5" value="Resource Group" style="shape=image;verticalLabelPosition=bottom;labelBackgroundColor=none;verticalAlign=top;aspect=fixed;imageAspect=0;image=data:image/svg+xml,PHN2ZyB4bWxucz0iaHR0cDovL3d3dy53My5vcmcvMjAwMC9zdmciIGlkPSJhNjg1Y2M4Yy0zMmJhLTRkNTQtOTFkYS0zYTEyNWNiNThkZWQiIHdpZHRoPSIxOCIgaGVpZ2h0PSIxOCIgdmlld0JveD0iMCAwIDE4IDE4Ij48dGl0bGU+SWNvbi1nZW5lcmFsLTc8L3RpdGxlPjxnPjxnPjxwYXRoIGQ9Ik0uNSwxNS4wOGEuMTYuMTYsMCwwLDAsLjA4LjE0bDEuMTYuNjVMMy43LDE3YS4xNy4xNywwLDAsMCwuMjMtLjA2bC42Ni0xLjEyYS4xNi4xNiwwLDAsMC0uMDYtLjIxbC0yLjMtMS4zYS4xNy4xNywwLDAsMS0uMDgtLjE0VjMuODVhLjE2LjE2LDAsMCwxLC4wOC0uMTRsMi4zLTEuM2EuMTYuMTYsMCwwLDAsLjA2LS4yMUwzLjkzLDEuMDhBLjE3LjE3LDAsMCwwLDMuNywxTDEuNzgsMi4xMWwtMS4yLjY3YS4xNi4xNiwwLDAsMC0uMDguMTRWMTUuMDhaIiBmaWxsPSIjOTQ5NDk0Ii8+PHBhdGggZD0iTTIuMTQsMy43N2wuMDYtLjA2LDIuMy0xLjNhLjE0LjE0LDAsMCwwLC4wNi0uMjFMMy45LDEuMDhBLjE1LjE1LDAsMCwwLDMuNjgsMUwxLjc1LDIuMTEuNTYsMi43OHMtLjA1LDAtLjA2LjA2bC45LjUxWiIgZmlsbD0iI2EzYTNhMyIvPjxwYXRoIGQ9Ik00LjUsMTUuNTlsLTIuMy0xLjNhLjIyLjIyLDAsMCwxLS4wNy0uMDlsLTEuNjIsMSwuMDUsMCwxLjE1LjY1LDIsMS4xMWEuMTUuMTUsMCwwLDAsLjIyLS4wNmwuNjYtMS4xMkEuMTQuMTQsMCwwLDAsNC41LDE1LjU5WiIgZmlsbD0iI2EzYTNhMyIvPjwvZz48cGF0aCBkPSJNMTcuNSwxNS4wOGEuMTYuMTYsMCwwLDEtLjA4LjE0bC0xLjE2LjY1TDE0LjMsMTdhLjE3LjE3LDAsMCwxLS4yMy0uMDZsLS42Ni0xLjEyYS4xNi4xNiwwLDAsMSwuMDYtLjIxbDIuMy0xLjNhLjE3LjE3LDAsMCwwLC4wOC0uMTRWMy44NWEuMTYuMTYsMCwwLDAtLjA4LS4xNGwtMi4zLTEuM2EuMTYuMTYsMCwwLDEtLjA2LS4yMWwuNjYtMS4xMkEuMTcuMTcsMCwwLDEsMTQuMywxbDEuOTIsMS4wOSwxLjIuNjdhLjE2LjE2LDAsMCwxLC4wOC4xNFYxNS4wOFoiIGZpbGw9IiM5NDk0OTQiLz48cGF0aCBkPSJNMTUuODYsMy43N2wtLjA2LS4wNi0yLjMtMS4zYS4xNC4xNCwwLDAsMS0uMDYtLjIxbC42Ni0xLjEyQS4xNS4xNSwwLDAsMSwxNC4zMiwxbDEuOTMsMS4wOSwxLjE5LjY3czAsMCwuMDYuMDZsLS45LjUxWiIgZmlsbD0iI2EzYTNhMyIvPjxwYXRoIGQ9Ik0xMy41LDE1LjU5bDIuMy0xLjNhLjIyLjIyLDAsMCwwLC4wNy0uMDlsMS42MiwxLDAsMC0xLjE1LjY1LTIsMS4xMWEuMTUuMTUsMCwwLDEtLjIyLS4wNmwtLjY2LTEuMTJBLjE0LjE0LDAsMCwxLDEzLjUsMTUuNTlaIiBmaWxsPSIjYTNhM2EzIi8+PHBvbHlnb24gcG9pbnRzPSIxNC4zMSA1LjkzIDE0LjMxIDEyLjA3IDguOTkgMTUuMTYgOC45OSA5LjAxIDE0LjMxIDUuOTMiIGZpbGw9IiMzMmJlZGQiLz48cG9seWdvbiBwb2ludHM9IjE0LjMxIDUuOTMgOSA5LjAyIDMuNjggNS45MyA5IDIuODQgMTQuMzEgNS45MyIgZmlsbD0iIzljZWJmZiIvPjxwb2x5Z29uIHBvaW50cz0iOC45OSA5LjAyIDguOTkgMTUuMTYgMy42OCAxMi4wNyAzLjY4IDUuOTMgOC45OSA5LjAyIiBmaWxsPSIjNTBlNmZmIi8+PHBvbHlnb24gcG9pbnRzPSIzLjY4IDEyLjA3IDguOTkgOS4wMSA4Ljk5IDE1LjE2IDMuNjggMTIuMDciIGZpbGw9IiM5Y2ViZmYiLz48cG9seWdvbiBwb2ludHM9IjE0LjMxIDEyLjA3IDguOTkgOS4wMSA4Ljk5IDE1LjE2IDE0LjMxIDEyLjA3IiBmaWxsPSIjNTBlNmZmIi8+PC9nPjwvc3ZnPg==;fontColor=#000000;fontFamily=Fira Sans Light;fontSource=https%3A%2F%2Ffonts.googleapis.com%2Fcss%3Ffamily%3DFira%2BSans%2BLight;fontSize=12;imageBackground=none;fontStyle=1" parent="1" vertex="1">
                    <mxGeometry x="573" y="363" width="40" height="40" as="geometry"/>
                </mxCell>
                <mxCell id="7" style="edgeStyle=none;html=1;fontFamily=Fira Sans Light;fontSource=https%3A%2F%2Ffonts.googleapis.com%2Fcss%3Ffamily%3DFira%2BSans%2BLight;fontSize=14;fontColor=#000000;labelBackgroundColor=none;strokeWidth=3;strokeColor=#000000;" parent="1" source="4" target="3" edge="1">
                    <mxGeometry relative="1" as="geometry"/>
                </mxCell>
                <mxCell id="4" value="Azure Container Registry" style="shape=image;verticalLabelPosition=bottom;labelBackgroundColor=none;verticalAlign=top;aspect=fixed;imageAspect=0;image=data:image/svg+xml,PHN2ZyB4bWxucz0iaHR0cDovL3d3dy53My5vcmcvMjAwMC9zdmciIGlkPSJlOWY3YmE3My01NmI4LTQ4NjQtOTZmZi1kY2U4MGJlZjcyOWEiIHdpZHRoPSIxOCIgaGVpZ2h0PSIxOCIgdmlld0JveD0iMCAwIDE4IDE4Ij48ZGVmcz48bGluZWFyR3JhZGllbnQgaWQ9ImJkZjI3ZGM2LTAyNWMtNDgwNS04YmZkLTNhMDVkZWZkM2ZiZCIgeDE9IjguNjM3IiB5MT0iLTEuOTkxIiB4Mj0iOC42MzciIHkyPSIxNi43MzkiIGdyYWRpZW50VW5pdHM9InVzZXJTcGFjZU9uVXNlIj48c3RvcCBvZmZzZXQ9IjAiIHN0b3AtY29sb3I9IiM1ZWEwZWYiLz48c3RvcCBvZmZzZXQ9IjEiIHN0b3AtY29sb3I9IiMwMDc4ZDQiLz48L2xpbmVhckdyYWRpZW50PjxsaW5lYXJHcmFkaWVudCBpZD0iZmNkNmM2YzctZTJlYi00YTMyLWI5MTQtM2E4NDg1NTg1YTFiIiB4MT0iMTIuOTYiIHkxPSI4LjU2MSIgeDI9IjEyLjk2IiB5Mj0iNi4xNDEiIGdyYWRpZW50VHJhbnNmb3JtPSJtYXRyaXgoMSwgMCwgMCwgLTEsIDAsIDIwKSIgZ3JhZGllbnRVbml0cz0idXNlclNwYWNlT25Vc2UiPjxzdG9wIG9mZnNldD0iMCIgc3RvcC1jb2xvcj0iIzMzMzEzMiIvPjxzdG9wIG9mZnNldD0iMSIgc3RvcC1jb2xvcj0iIzViNWE1YyIvPjwvbGluZWFyR3JhZGllbnQ+PC9kZWZzPjxwYXRoIGQ9Ik03LjQzLDguMTc4bDIuNTg5LTEuNTczLDcuMjU1LDIuNzMxQTMuNjY0LDMuNjY0LDAsMCwwLDE2LjIzLDcuNDlsLS4wMS0uMDVBNC4xOTQsNC4xOTQsMCwwLDAsMTQsNi4zMmE0LjkxLDQuOTEsMCwwLDAtNS4xLTQuN0E1LjA3MSw1LjA3MSwwLDAsMCw0LjA2LDQuOTEsNC42MjEsNC42MjEsMCwwLDAsMCw5LjM5YTQuNzMsNC43MywwLDAsMCw0Ljg5LDQuNTRINy40M1oiIGZpbGw9InVybCgjYmRmMjdkYzYtMDI1Yy00ODA1LThiZmQtM2EwNWRlZmQzZmJkKSIvPjxwb2x5Z29uIHBvaW50cz0iMTAuMDcgNy4xNTkgMTAuMDggMTEuNDM5IDE3Ljk5IDEzLjExOSAxNy45OSAxMC4xMzkgMTAuMDcgNy4xNTkiIGZpbGw9IiM3Njc2NzYiLz48cG9seWxpbmUgcG9pbnRzPSIxMC4wNyA3LjE1OSA3LjkzIDguNDU5IDcuOTMgMTIuNDM5IDEwLjA4IDExLjQzOSIgZmlsbD0iIzk5OSIvPjxwb2x5Z29uIHBvaW50cz0iMTMuNjggMTEuNDk5IDE0LjQgMTEuNjk5IDE0LjQgOS4zNjkgMTMuNjggOS4xMTkgMTMuNjggMTEuNDk5IiBmaWxsPSIjYTNhM2EzIi8+PHBvbHlnb24gcG9pbnRzPSIxMi45NiA4Ljg4OSAxMi4yNCA4LjYyOSAxMi4yNCAxMS4xMTkgMTIuOTYgMTEuMzE5IDEyLjk2IDguODg5IiBmaWxsPSIjYTNhM2EzIi8+PHBvbHlnb24gcG9pbnRzPSIxNS4xMiAxMS44ODkgMTUuODIgMTIuMDc5IDE1Ljg0IDkuODU5IDE1LjEyIDkuNjE5IDE1LjEyIDExLjg4OSIgZmlsbD0iI2EzYTNhMyIvPjxwb2x5Z29uIHBvaW50cz0iMTAuODEgMTAuNzQ5IDExLjUzIDEwLjkyOSAxMS41MyA4LjM5OSAxMC44MSA4LjE1OSAxMC44MSAxMC43NDkiIGZpbGw9IiNhM2EzYTMiLz48cG9seWdvbiBwb2ludHM9IjE3LjI3IDEwLjM0OSAxNi41NSAxMC4wOTkgMTYuNTUgMTIuMjY5IDE3LjI3IDEyLjQ2OSAxNy4yNyAxMC4zNDkiIGZpbGw9IiNhM2EzYTMiLz48cGF0aCBpZD0iZWYwZDFiNTQtYTFlNy00Y2I5LWE0ZTUtOGE4NTE4ZTdjMTI3IiBkPSJNOC42NiwxMS4zNjlsLS4zNi4yMVY4Ljc0OWwuMzYtLjE5Wm0uNzEtMy4yMkw5LDguMzg5djIuNzVsLjM3LS4yWiIgZmlsbD0iI2IzYjNiMyIvPjxwb2x5Z29uIHBvaW50cz0iMTcuOTkgMTMuMTE5IDE1LjgzIDEzLjg1OSA3LjkzIDEyLjQzOSAxMC4wOCAxMS40MzkgMTcuOTkgMTMuMTE5IiBmaWxsPSJ1cmwoI2ZjZDZjNmM3LWUyZWItNGEzMi1iOTE0LTNhODQ4NTU4NWExYikiLz48cG9seWdvbiBwb2ludHM9IjE3Ljk5IDE2LjE2OSAxMC4wNCAxNy42NzkgMTAuMDggMTIuMDg5IDE3Ljk5IDEzLjU1OSAxNy45OSAxNi4xNjkiIGZpbGw9IiM3Njc2NzYiLz48cG9seWdvbiBwb2ludHM9IjEwLjgxIDE2Ljc1OSAxMC44MSAxMy4yMDkgMTEuNTMgMTMuMjk5IDExLjUzIDE2LjYzOSAxMC44MSAxNi43NTkiIGZpbGw9IiNhM2EzYTMiLz48cG9seWdvbiBwb2ludHM9IjEyLjk2IDE2LjM5OSAxMi4yNCAxNi41MjkgMTIuMjQgMTMuMzg5IDEyLjk2IDEzLjQ5OSAxMi45NiAxNi4zOTkgMTIuOTYgMTYuMzk5IiBmaWxsPSIjYTNhM2EzIi8+PHBvbHlnb24gcG9pbnRzPSIxMy42OCAxNi4yODkgMTMuNjggMTMuNTY5IDE0LjQgMTMuNjU5IDE0LjQgMTYuMTU5IDEzLjY4IDE2LjI4OSIgZmlsbD0iI2EzYTNhMyIvPjxwb2x5Z29uIHBvaW50cz0iMTUuODMgMTUuOTA5IDE1LjEyIDE2LjAzOSAxNS4xMiAxMy43NDkgMTUuODMgMTMuODU5IDE1LjgzIDE1LjkwOSIgZmlsbD0iI2EzYTNhMyIvPjxwb2x5Z29uIHBvaW50cz0iMTcuMjkgMTUuNjc5IDE2LjU1IDE1LjgwOSAxNi41NSAxMy45MjkgMTcuMjQgMTQuMDE5IDE3LjI5IDE1LjY3OSIgZmlsbD0iI2EzYTNhMyIvPjxwYXRoIGlkPSJiOWYyNWViNC00Yzg4LTQ1YzItYmM0ZC1mOTkyNzU3ZDdlMGUiIGQ9Ik03LjkzLDE2LjR2LTMuMjZsMi4xNi0xdjUuNloiIGZpbGw9IiM5OTkiLz48cGF0aCBpZD0iZWI5MjAwYTctNDY5My00NDI3LWJkYWUtYjMzY2U5MGZmN2YyIiBkPSJNOC42MSwxNi4zODlsLS4zMi0uMTZ2LTIuNzZsLjMyLS4xNVptLjc3LTMuNDUtLjM4LjE5djMuNDhsLjM3LjE5di0zLjg2WiIgZmlsbD0iI2IzYjNiMyIvPjwvc3ZnPg==;fontColor=#000000;fontFamily=Fira Sans Light;fontSource=https%3A%2F%2Ffonts.googleapis.com%2Fcss%3Ffamily%3DFira%2BSans%2BLight;fontStyle=1" parent="1" vertex="1">
                    <mxGeometry x="290" y="255" width="80" height="80" as="geometry"/>
                </mxCell>
                <mxCell id="9" value="deploy" style="text;html=1;strokeColor=none;fillColor=none;align=center;verticalAlign=middle;whiteSpace=wrap;rounded=0;fontColor=#000000;fontFamily=Fira Sans Light;fontSource=https%3A%2F%2Ffonts.googleapis.com%2Fcss%3Ffamily%3DFira%2BSans%2BLight;fontStyle=1" parent="1" vertex="1">
                    <mxGeometry x="397" y="260" width="60" height="30" as="geometry"/>
                </mxCell>
                <mxCell id="11" value="" style="rounded=0;whiteSpace=wrap;html=1;labelBackgroundColor=none;fontFamily=Fira Sans Light;fontSource=https%3A%2F%2Ffonts.googleapis.com%2Fcss%3Ffamily%3DFira%2BSans%2BLight;fontColor=#000000;fillColor=none;strokeColor=#000000;fontStyle=1" vertex="1" parent="1">
                    <mxGeometry x="226" y="186" width="387" height="214" as="geometry"/>
                </mxCell>
                <mxCell id="10" value="deploy" style="text;html=1;strokeColor=none;fillColor=none;align=center;verticalAlign=middle;whiteSpace=wrap;rounded=0;fontColor=#000000;fontFamily=Fira Sans Light;fontSource=https%3A%2F%2Ffonts.googleapis.com%2Fcss%3Ffamily%3DFira%2BSans%2BLight;fontStyle=1" parent="1" vertex="1">
                    <mxGeometry x="168" y="263" width="60" height="30" as="geometry"/>
                </mxCell>
            </root>
        </mxGraphModel>
    </diagram>
</mxfile>